<svg xmlns="http://www.w3.org/2000/svg" width="560" height="400" viewBox="0 0 560 400" font-family="Noto Sans SC, PingFang SC, Microsoft YaHei, sans-serif" font-size="13"><defs><marker id="a3" markerWidth="9" markerHeight="7" refX="8" refY="3.5" orient="auto" markerUnits="userSpaceOnUse"><path d="M0,0 L9,3.5 L0,7 z" fill="#475569"/></marker><marker id="a3r" markerWidth="9" markerHeight="7" refX="8" refY="3.5" orient="auto" markerUnits="userSpaceOnUse"><path d="M0,0 L9,3.5 L0,7 z" fill="#dc2626"/></marker><marker id="a3b" markerWidth="9" markerHeight="7" refX="8" refY="3.5" orient="auto" markerUnits="userSpaceOnUse"><path d="M0,0 L9,3.5 L0,7 z" fill="#2563eb"/></marker><marker id="a3g" markerWidth="9" markerHeight="7" refX="8" refY="3.5" orient="auto" markerUnits="userSpaceOnUse"><path d="M0,0 L9,3.5 L0,7 z" fill="#16a34a"/></marker></defs><polygon points="285,140 285,340 475,365 475,165" fill="#dbeafe" fill-opacity="0.9" stroke="#3b82f6" stroke-width="1.8"/><polygon points="285,140 285,340 200,210 200,10" fill="#fee2e2" fill-opacity="0.9" stroke="#ef4444" stroke-width="1.8"/><line x1="285.0" y1="140.0" x2="285.0" y2="340.0" stroke="#1e293b" stroke-width="2.6"/><text x="293.0" y="132.0" font-size="16" fill="#1e293b" text-anchor="start" font-weight="bold" font-style="italic">l</text><line x1="285.0" y1="240.0" x2="390.0" y2="240.0" stroke="#16a34a" stroke-width="2.6" marker-end="url(#a3g)"/><line x1="285.0" y1="240.0" x2="221.2" y2="142.5" stroke="#16a34a" stroke-width="2.6" marker-end="url(#a3g)"/><circle cx="285.0" cy="240.0" r="4.5" fill="#1e293b"/><text x="275.0" y="260.0" font-size="14" fill="#1e293b" text-anchor="end" font-weight="bold">A</text><text x="396.0" y="246.0" font-size="14" fill="#16a34a" text-anchor="start" font-weight="bold">P</text><text x="209.2" y="136.5" font-size="14" fill="#16a34a" text-anchor="end" font-weight="bold">Q</text><path d="M285,224 L301,224 L301,240" stroke="#16a34a" stroke-width="1.6" fill="none"/><path d="M285,224 L276.24401019227673,224 L276.24401019227673,226.60848617642327" stroke="#16a34a" stroke-width="1.6" fill="none"/><path d="M258.7,199.8 A48,48 0 0,1 333.0,240.0" stroke="#f59e0b" stroke-width="2.2" fill="none"/><text x="316.4" y="186.9" font-size="17" fill="#b45309" text-anchor="middle" font-weight="bold">θ</text><text x="280.0" y="390.0" font-size="13.5" fill="#475569" text-anchor="middle" font-weight="normal">PA ⊥ l，QA ⊥ l（P ∈ α，Q ∈ β），∠PAQ 即二面角的平面角</text></svg>