<svg xmlns="http://www.w3.org/2000/svg" width="600" height="350" viewBox="0 0 600 350" font-family="Noto Sans SC, PingFang SC, Microsoft YaHei, sans-serif" font-size="13"><defs><marker id="a3" markerWidth="9" markerHeight="7" refX="8" refY="3.5" orient="auto" markerUnits="userSpaceOnUse"><path d="M0,0 L9,3.5 L0,7 z" fill="#475569"/></marker><marker id="a3r" markerWidth="9" markerHeight="7" refX="8" refY="3.5" orient="auto" markerUnits="userSpaceOnUse"><path d="M0,0 L9,3.5 L0,7 z" fill="#dc2626"/></marker><marker id="a3b" markerWidth="9" markerHeight="7" refX="8" refY="3.5" orient="auto" markerUnits="userSpaceOnUse"><path d="M0,0 L9,3.5 L0,7 z" fill="#2563eb"/></marker><marker id="a3g" markerWidth="9" markerHeight="7" refX="8" refY="3.5" orient="auto" markerUnits="userSpaceOnUse"><path d="M0,0 L9,3.5 L0,7 z" fill="#16a34a"/></marker></defs><line x1="46.0" y1="294.0" x2="552.0" y2="294.0" stroke="#475569" stroke-width="1.6" marker-end="url(#a3)"/><line x1="56.0" y1="304.0" x2="56.0" y2="48.0" stroke="#475569" stroke-width="1.6" marker-end="url(#a3)"/><line x1="78.2" y1="290.0" x2="78.2" y2="298.0" stroke="#475569" stroke-width="1.4"/><text x="78.2" y="311.0" font-size="11" fill="#475569" text-anchor="middle" font-weight="normal">10</text><line x1="152.1" y1="290.0" x2="152.1" y2="298.0" stroke="#475569" stroke-width="1.4"/><text x="152.1" y="311.0" font-size="11" fill="#475569" text-anchor="middle" font-weight="normal">20</text><line x1="226.1" y1="290.0" x2="226.1" y2="298.0" stroke="#475569" stroke-width="1.4"/><text x="226.1" y="311.0" font-size="11" fill="#475569" text-anchor="middle" font-weight="normal">30</text><line x1="300.0" y1="290.0" x2="300.0" y2="298.0" stroke="#475569" stroke-width="1.4"/><text x="300.0" y="311.0" font-size="11" fill="#475569" text-anchor="middle" font-weight="normal">40</text><line x1="373.9" y1="290.0" x2="373.9" y2="298.0" stroke="#475569" stroke-width="1.4"/><text x="373.9" y="311.0" font-size="11" fill="#475569" text-anchor="middle" font-weight="normal">50</text><line x1="447.9" y1="290.0" x2="447.9" y2="298.0" stroke="#475569" stroke-width="1.4"/><text x="447.9" y="311.0" font-size="11" fill="#475569" text-anchor="middle" font-weight="normal">60</text><line x1="521.8" y1="290.0" x2="521.8" y2="298.0" stroke="#475569" stroke-width="1.4"/><text x="521.8" y="311.0" font-size="11" fill="#475569" text-anchor="middle" font-weight="normal">70</text><line x1="52.0" y1="294.0" x2="60.0" y2="294.0" stroke="#475569" stroke-width="1.4"/><line x1="52.0" y1="224.0" x2="60.0" y2="224.0" stroke="#475569" stroke-width="1.4"/><text x="48.0" y="228.0" font-size="11" fill="#475569" text-anchor="end" font-weight="normal">0.01</text><line x1="52.0" y1="154.0" x2="60.0" y2="154.0" stroke="#475569" stroke-width="1.4"/><text x="48.0" y="158.0" font-size="11" fill="#475569" text-anchor="end" font-weight="normal">0.02</text><line x1="52.0" y1="84.0" x2="60.0" y2="84.0" stroke="#475569" stroke-width="1.4"/><text x="48.0" y="88.0" font-size="11" fill="#475569" text-anchor="end" font-weight="normal">0.03</text><text x="49.0" y="310.0" font-size="12" fill="#475569" text-anchor="end" font-weight="normal">O</text><text x="558.0" y="299.0" font-size="14" fill="#1e293b" text-anchor="start" font-weight="bold">成绩</text><text x="52.0" y="44.0" font-size="14" fill="#1e293b" text-anchor="middle" font-weight="bold">频率/组距</text><rect x="78.2" y="259.0" width="73.9" height="35.0" fill="#60a5fa" stroke="#1d4ed8" stroke-width="1.4"/><rect x="152.1" y="189.0" width="73.9" height="105.0" fill="#60a5fa" stroke="#1d4ed8" stroke-width="1.4"/><rect x="226.1" y="84.0" width="73.9" height="210.0" fill="#60a5fa" stroke="#1d4ed8" stroke-width="1.4"/><rect x="300.0" y="119.0" width="73.9" height="175.0" fill="#60a5fa" stroke="#1d4ed8" stroke-width="1.4"/><rect x="373.9" y="189.0" width="73.9" height="105.0" fill="#60a5fa" stroke="#1d4ed8" stroke-width="1.4"/><rect x="447.9" y="224.0" width="73.9" height="70.0" fill="#60a5fa" stroke="#1d4ed8" stroke-width="1.4"/><text x="263.0" y="122.5" font-size="13" fill="#1e3a8a" text-anchor="middle" font-weight="bold">小矩形面积 = 频率</text><text x="263.0" y="150.5" font-size="12" fill="#1e3a8a" text-anchor="middle" font-weight="normal">（所有面积之和 = 1）</text><text x="300.0" y="338.0" font-size="13.5" fill="#475569" text-anchor="middle" font-weight="normal">频率分布直方图：纵轴为 频率/组距，横轴为分组区间</text></svg>