<svg xmlns="http://www.w3.org/2000/svg" width="600" height="370" viewBox="0 0 600 370" font-family="Noto Sans SC, PingFang SC, Microsoft YaHei, sans-serif" font-size="13"><defs><marker id="a3" markerWidth="9" markerHeight="7" refX="8" refY="3.5" orient="auto" markerUnits="userSpaceOnUse"><path d="M0,0 L9,3.5 L0,7 z" fill="#475569"/></marker><marker id="a3r" markerWidth="9" markerHeight="7" refX="8" refY="3.5" orient="auto" markerUnits="userSpaceOnUse"><path d="M0,0 L9,3.5 L0,7 z" fill="#dc2626"/></marker><marker id="a3b" markerWidth="9" markerHeight="7" refX="8" refY="3.5" orient="auto" markerUnits="userSpaceOnUse"><path d="M0,0 L9,3.5 L0,7 z" fill="#2563eb"/></marker><marker id="a3g" markerWidth="9" markerHeight="7" refX="8" refY="3.5" orient="auto" markerUnits="userSpaceOnUse"><path d="M0,0 L9,3.5 L0,7 z" fill="#16a34a"/></marker></defs><line x1="44.0" y1="316.0" x2="554.0" y2="316.0" stroke="#475569" stroke-width="1.6" marker-end="url(#a3)"/><line x1="54.0" y1="326.0" x2="54.0" y2="46.0" stroke="#475569" stroke-width="1.6" marker-end="url(#a3)"/><line x1="54.0" y1="312.0" x2="54.0" y2="320.0" stroke="#475569" stroke-width="1.4"/><line x1="152.4" y1="312.0" x2="152.4" y2="320.0" stroke="#475569" stroke-width="1.4"/><text x="152.4" y="333.0" font-size="11" fill="#475569" text-anchor="middle" font-weight="normal">2</text><line x1="250.8" y1="312.0" x2="250.8" y2="320.0" stroke="#475569" stroke-width="1.4"/><text x="250.8" y="333.0" font-size="11" fill="#475569" text-anchor="middle" font-weight="normal">4</text><line x1="349.2" y1="312.0" x2="349.2" y2="320.0" stroke="#475569" stroke-width="1.4"/><text x="349.2" y="333.0" font-size="11" fill="#475569" text-anchor="middle" font-weight="normal">6</text><line x1="447.6" y1="312.0" x2="447.6" y2="320.0" stroke="#475569" stroke-width="1.4"/><text x="447.6" y="333.0" font-size="11" fill="#475569" text-anchor="middle" font-weight="normal">8</text><line x1="546.0" y1="312.0" x2="546.0" y2="320.0" stroke="#475569" stroke-width="1.4"/><text x="546.0" y="333.0" font-size="11" fill="#475569" text-anchor="middle" font-weight="normal">10</text><line x1="50.0" y1="316.0" x2="58.0" y2="316.0" stroke="#475569" stroke-width="1.4"/><line x1="50.0" y1="263.6" x2="58.0" y2="263.6" stroke="#475569" stroke-width="1.4"/><text x="46.0" y="267.6" font-size="11" fill="#475569" text-anchor="end" font-weight="normal">2</text><line x1="50.0" y1="211.2" x2="58.0" y2="211.2" stroke="#475569" stroke-width="1.4"/><text x="46.0" y="215.2" font-size="11" fill="#475569" text-anchor="end" font-weight="normal">4</text><line x1="50.0" y1="158.8" x2="58.0" y2="158.8" stroke="#475569" stroke-width="1.4"/><text x="46.0" y="162.8" font-size="11" fill="#475569" text-anchor="end" font-weight="normal">6</text><line x1="50.0" y1="106.4" x2="58.0" y2="106.4" stroke="#475569" stroke-width="1.4"/><text x="46.0" y="110.4" font-size="11" fill="#475569" text-anchor="end" font-weight="normal">8</text><line x1="50.0" y1="54.0" x2="58.0" y2="54.0" stroke="#475569" stroke-width="1.4"/><text x="46.0" y="58.0" font-size="11" fill="#475569" text-anchor="end" font-weight="normal">10</text><text x="47.0" y="332.0" font-size="12" fill="#475569" text-anchor="end" font-weight="normal">O</text><text x="560.0" y="321.0" font-size="14" fill="#1e293b" text-anchor="start" font-weight="bold">x</text><text x="50.0" y="42.0" font-size="14" fill="#1e293b" text-anchor="middle" font-weight="bold">y</text><path d="M73.7,280.9 L526.3,83.3" stroke="#dc2626" stroke-width="2.6" fill="none"/><circle cx="103.2" cy="266.2" r="4.5" fill="#2563eb"/><circle cx="152.4" cy="247.9" r="4.5" fill="#2563eb"/><circle cx="201.6" cy="226.9" r="4.5" fill="#2563eb"/><circle cx="250.8" cy="200.7" r="4.5" fill="#2563eb"/><circle cx="300.0" cy="182.4" r="4.5" fill="#2563eb"/><circle cx="349.2" cy="166.7" r="4.5" fill="#2563eb"/><circle cx="398.4" cy="137.8" r="4.5" fill="#2563eb"/><circle cx="447.6" cy="116.9" r="4.5" fill="#2563eb"/><circle cx="496.8" cy="93.3" r="4.5" fill="#2563eb"/><line x1="300.0" y1="182.1" x2="300.0" y2="316.0" stroke="#7c3aed" stroke-width="1.5" stroke-dasharray="5,4"/><line x1="54.0" y1="182.1" x2="300.0" y2="182.1" stroke="#7c3aed" stroke-width="1.5" stroke-dasharray="5,4"/><circle cx="300.0" cy="182.1" r="5.5" fill="#7c3aed"/><text x="308.0" y="172.1" font-size="13" fill="#7c3aed" text-anchor="start" font-weight="bold">样本中心 (x̄, ȳ)</text><text x="432.8" y="153.6" font-size="13.5" fill="#dc2626" text-anchor="start" font-weight="bold">回归直线 ŷ = b̂x + â</text><text x="300.0" y="358.0" font-size="13.5" fill="#475569" text-anchor="middle" font-weight="normal">回归直线必过样本中心 (x̄, ȳ)，使残差平方和最小</text></svg>