<svg xmlns="http://www.w3.org/2000/svg" width="700" height="350" viewBox="0 0 700 350" font-family="Noto Sans SC, PingFang SC, Microsoft YaHei, sans-serif" font-size="13"><defs><marker id="a3" markerWidth="9" markerHeight="7" refX="8" refY="3.5" orient="auto" markerUnits="userSpaceOnUse"><path d="M0,0 L9,3.5 L0,7 z" fill="#475569"/></marker><marker id="a3r" markerWidth="9" markerHeight="7" refX="8" refY="3.5" orient="auto" markerUnits="userSpaceOnUse"><path d="M0,0 L9,3.5 L0,7 z" fill="#dc2626"/></marker><marker id="a3b" markerWidth="9" markerHeight="7" refX="8" refY="3.5" orient="auto" markerUnits="userSpaceOnUse"><path d="M0,0 L9,3.5 L0,7 z" fill="#2563eb"/></marker><marker id="a3g" markerWidth="9" markerHeight="7" refX="8" refY="3.5" orient="auto" markerUnits="userSpaceOnUse"><path d="M0,0 L9,3.5 L0,7 z" fill="#16a34a"/></marker></defs><line x1="44.0" y1="175.0" x2="654.0" y2="175.0" stroke="#475569" stroke-width="1.6" marker-end="url(#a3)"/><line x1="107.9" y1="306.0" x2="107.9" y2="46.0" stroke="#475569" stroke-width="1.6" marker-end="url(#a3)"/><line x1="107.9" y1="171.0" x2="107.9" y2="179.0" stroke="#475569" stroke-width="1.4"/><line x1="229.0" y1="171.0" x2="229.0" y2="179.0" stroke="#475569" stroke-width="1.4"/><text x="229.0" y="192.0" font-size="11" fill="#475569" text-anchor="middle" font-weight="normal">π/2</text><line x1="350.0" y1="171.0" x2="350.0" y2="179.0" stroke="#475569" stroke-width="1.4"/><text x="350.0" y="192.0" font-size="11" fill="#475569" text-anchor="middle" font-weight="normal">π</text><line x1="471.0" y1="171.0" x2="471.0" y2="179.0" stroke="#475569" stroke-width="1.4"/><text x="471.0" y="192.0" font-size="11" fill="#475569" text-anchor="middle" font-weight="normal">3π/2</text><line x1="592.1" y1="171.0" x2="592.1" y2="179.0" stroke="#475569" stroke-width="1.4"/><text x="592.1" y="192.0" font-size="11" fill="#475569" text-anchor="middle" font-weight="normal">2π</text><line x1="103.9" y1="264.6" x2="111.9" y2="264.6" stroke="#475569" stroke-width="1.4"/><text x="99.9" y="268.6" font-size="11" fill="#475569" text-anchor="end" font-weight="normal">-2</text><line x1="103.9" y1="219.8" x2="111.9" y2="219.8" stroke="#475569" stroke-width="1.4"/><text x="99.9" y="223.8" font-size="11" fill="#475569" text-anchor="end" font-weight="normal">-1</text><line x1="103.9" y1="175.0" x2="111.9" y2="175.0" stroke="#475569" stroke-width="1.4"/><line x1="103.9" y1="130.2" x2="111.9" y2="130.2" stroke="#475569" stroke-width="1.4"/><text x="99.9" y="134.2" font-size="11" fill="#475569" text-anchor="end" font-weight="normal">1</text><line x1="103.9" y1="85.4" x2="111.9" y2="85.4" stroke="#475569" stroke-width="1.4"/><text x="99.9" y="89.4" font-size="11" fill="#475569" text-anchor="end" font-weight="normal">2</text><text x="100.9" y="191.0" font-size="12" fill="#475569" text-anchor="end" font-weight="normal">O</text><text x="660.0" y="180.0" font-size="14" fill="#1e293b" text-anchor="start" font-weight="bold">x</text><text x="103.9" y="42.0" font-size="14" fill="#1e293b" text-anchor="middle" font-weight="bold">y</text><path d="M57.9,202.1 L60.5,200.9 L63.2,199.6 L65.8,198.3 L68.5,197.0 L71.1,195.6 L73.8,194.2 L76.4,192.8 L79.1,191.4 L81.8,189.9 L84.4,188.5 L87.1,187.0 L89.7,185.5 L92.4,184.0 L95.0,182.5 L97.7,180.9 L100.3,179.4 L103.0,177.9 L105.7,176.3 L108.3,174.8 L111.0,173.2 L113.6,171.7 L116.3,170.2 L118.9,168.6 L121.6,167.1 L124.2,165.6 L126.9,164.1 L129.6,162.6 L132.2,161.1 L134.9,159.6 L137.5,158.2 L140.2,156.8 L142.8,155.4 L145.5,154.0 L148.2,152.7 L150.8,151.3 L153.5,150.0 L156.1,148.8 L158.8,147.5 L161.4,146.3 L164.1,145.2 L166.7,144.0 L169.4,142.9 L172.1,141.9 L174.7,140.8 L177.4,139.9 L180.0,138.9 L182.7,138.0 L185.3,137.2 L188.0,136.4 L190.6,135.6 L193.3,134.9 L196.0,134.2 L198.6,133.6 L201.3,133.0 L203.9,132.5 L206.6,132.1 L209.2,131.6 L211.9,131.3 L214.5,131.0 L217.2,130.7 L219.9,130.5 L222.5,130.3 L225.2,130.2 L227.8,130.2 L230.5,130.2 L233.1,130.3 L235.8,130.4 L238.5,130.5 L241.1,130.7 L243.8,131.0 L246.4,131.3 L249.1,131.7 L251.7,132.1 L254.4,132.6 L257.0,133.1 L259.7,133.7 L262.4,134.3 L265.0,135.0 L267.7,135.7 L270.3,136.5 L273.0,137.3 L275.6,138.2 L278.3,139.1 L280.9,140.0 L283.6,141.0 L286.3,142.0 L288.9,143.1 L291.6,144.2 L294.2,145.3 L296.9,146.5 L299.5,147.7 L302.2,148.9 L304.8,150.2 L307.5,151.5 L310.2,152.8 L312.8,154.2 L315.5,155.6 L318.1,157.0 L320.8,158.4 L323.4,159.9 L326.1,161.3 L328.8,162.8 L331.4,164.3 L334.1,165.8 L336.7,167.3 L339.4,168.8 L342.0,170.4 L344.7,171.9 L347.3,173.5 L350.0,175.0 L352.7,176.5 L355.3,178.1 L358.0,179.6 L360.6,181.2 L363.3,182.7 L365.9,184.2 L368.6,185.7 L371.2,187.2 L373.9,188.7 L376.6,190.1 L379.2,191.6 L381.9,193.0 L384.5,194.4 L387.2,195.8 L389.8,197.2 L392.5,198.5 L395.2,199.8 L397.8,201.1 L400.5,202.3 L403.1,203.5 L405.8,204.7 L408.4,205.8 L411.1,206.9 L413.7,208.0 L416.4,209.0 L419.1,210.0 L421.7,210.9 L424.4,211.8 L427.0,212.7 L429.7,213.5 L432.3,214.3 L435.0,215.0 L437.6,215.7 L440.3,216.3 L443.0,216.9 L445.6,217.4 L448.3,217.9 L450.9,218.3 L453.6,218.7 L456.2,219.0 L458.9,219.3 L461.5,219.5 L464.2,219.6 L466.9,219.7 L469.5,219.8 L472.2,219.8 L474.8,219.8 L477.5,219.7 L480.1,219.5 L482.8,219.3 L485.5,219.0 L488.1,218.7 L490.8,218.4 L493.4,217.9 L496.1,217.5 L498.7,217.0 L501.4,216.4 L504.0,215.8 L506.7,215.1 L509.4,214.4 L512.0,213.6 L514.7,212.8 L517.3,212.0 L520.0,211.1 L522.6,210.1 L525.3,209.2 L527.9,208.1 L530.6,207.1 L533.3,206.0 L535.9,204.8 L538.6,203.7 L541.2,202.5 L543.9,201.2 L546.5,200.0 L549.2,198.7 L551.8,197.3 L554.5,196.0 L557.2,194.6 L559.8,193.2 L562.5,191.8 L565.1,190.4 L567.8,188.9 L570.4,187.4 L573.1,185.9 L575.8,184.4 L578.4,182.9 L581.1,181.4 L583.7,179.8 L586.4,178.3 L589.0,176.8 L591.7,175.2 L594.3,173.7 L597.0,172.1 L599.7,170.6 L602.3,169.1 L605.0,167.5 L607.6,166.0 L610.3,164.5 L612.9,163.0 L615.6,161.5 L618.2,160.1 L620.9,158.6 L623.6,157.2 L626.2,155.8 L628.9,154.4 L631.5,153.0 L634.2,151.7 L636.8,150.4 L639.5,149.1 L642.1,147.9" stroke="#94a3b8" stroke-width="2.0" fill="none"/><path d="M57.9,238.9 L60.5,243.1 L63.2,247.0 L65.8,250.5 L68.5,253.6 L71.1,256.4 L73.8,258.8 L76.4,260.8 L79.1,262.4 L81.8,263.5 L84.4,264.3 L87.1,264.6 L89.7,264.5 L92.4,264.0 L95.0,263.0 L97.7,261.7 L100.3,259.9 L103.0,257.7 L105.7,255.1 L108.3,252.2 L111.0,248.9 L113.6,245.2 L116.3,241.2 L118.9,236.9 L121.6,232.2 L124.2,227.4 L126.9,222.2 L129.6,216.9 L132.2,211.3 L134.9,205.6 L137.5,199.7 L140.2,193.7 L142.8,187.6 L145.5,181.5 L148.2,175.3 L150.8,169.1 L153.5,163.0 L156.1,156.9 L158.8,150.9 L161.4,145.0 L164.1,139.2 L166.7,133.7 L169.4,128.3 L172.1,123.1 L174.7,118.2 L177.4,113.6 L180.0,109.2 L182.7,105.2 L185.3,101.5 L188.0,98.1 L190.6,95.1 L193.3,92.5 L196.0,90.3 L198.6,88.5 L201.3,87.1 L203.9,86.1 L206.6,85.5 L209.2,85.4 L211.9,85.7 L214.5,86.4 L217.2,87.5 L219.9,89.0 L222.5,91.0 L225.2,93.3 L227.8,96.1 L230.5,99.2 L233.1,102.7 L235.8,106.5 L238.5,110.6 L241.1,115.1 L243.8,119.8 L246.4,124.8 L249.1,130.1 L251.7,135.5 L254.4,141.1 L257.0,146.9 L259.7,152.9 L262.4,158.9 L265.0,165.0 L267.7,171.2 L270.3,177.4 L273.0,183.5 L275.6,189.6 L278.3,195.7 L280.9,201.7 L283.6,207.5 L286.3,213.2 L288.9,218.7 L291.6,224.0 L294.2,229.0 L296.9,233.8 L299.5,238.3 L302.2,242.5 L304.8,246.4 L307.5,250.0 L310.2,253.2 L312.8,256.0 L315.5,258.5 L318.1,260.5 L320.8,262.2 L323.4,263.4 L326.1,264.2 L328.8,264.6 L331.4,264.6 L334.1,264.1 L336.7,263.2 L339.4,261.9 L342.0,260.2 L344.7,258.0 L347.3,255.5 L350.0,252.6 L352.7,249.4 L355.3,245.7 L358.0,241.8 L360.6,237.5 L363.3,232.9 L365.9,228.1 L368.6,223.0 L371.2,217.6 L373.9,212.1 L376.6,206.4 L379.2,200.5 L381.9,194.6 L384.5,188.5 L387.2,182.3 L389.8,176.2 L392.5,170.0 L395.2,163.8 L397.8,157.7 L400.5,151.7 L403.1,145.8 L405.8,140.1 L408.4,134.5 L411.1,129.0 L413.7,123.9 L416.4,118.9 L419.1,114.2 L421.7,109.8 L424.4,105.7 L427.0,102.0 L429.7,98.6 L432.3,95.5 L435.0,92.9 L437.6,90.6 L440.3,88.7 L443.0,87.3 L445.6,86.2 L448.3,85.6 L450.9,85.4 L453.6,85.6 L456.2,86.2 L458.9,87.3 L461.5,88.8 L464.2,90.7 L466.9,93.0 L469.5,95.7 L472.2,98.7 L474.8,102.2 L477.5,105.9 L480.1,110.0 L482.8,114.4 L485.5,119.1 L488.1,124.1 L490.8,129.3 L493.4,134.7 L496.1,140.3 L498.7,146.1 L501.4,152.0 L504.0,158.0 L506.7,164.1 L509.4,170.3 L512.0,176.5 L514.7,182.6 L517.3,188.8 L520.0,194.8 L522.6,200.8 L525.3,206.7 L527.9,212.4 L530.6,217.9 L533.3,223.2 L535.9,228.3 L538.6,233.1 L541.2,237.7 L543.9,242.0 L546.5,245.9 L549.2,249.5 L551.8,252.8 L554.5,255.7 L557.2,258.2 L559.8,260.3 L562.5,262.0 L565.1,263.3 L567.8,264.1 L570.4,264.6 L573.1,264.6 L575.8,264.2 L578.4,263.4 L581.1,262.1 L583.7,260.4 L586.4,258.4 L589.0,255.9 L591.7,253.1 L594.3,249.8 L597.0,246.3 L599.7,242.3 L602.3,238.1 L605.0,233.6 L607.6,228.8 L610.3,223.7 L612.9,218.4 L615.6,212.9 L618.2,207.2 L620.9,201.4 L623.6,195.4 L626.2,189.4 L628.9,183.2 L631.5,177.1 L634.2,170.9 L636.8,164.7 L639.5,158.6 L642.1,152.6" stroke="#dc2626" stroke-width="2.6" fill="none"/><line x1="65.6" y1="69.7" x2="119.5" y2="69.7" stroke="#94a3b8" stroke-width="2.0"/><text x="127.2" y="73.7" font-size="13" fill="#64748b" text-anchor="start" font-weight="normal">y = sin x</text><line x1="65.6" y1="87.6" x2="119.5" y2="87.6" stroke="#dc2626" stroke-width="2.6"/><text x="127.2" y="91.6" font-size="13" fill="#dc2626" text-anchor="start" font-weight="bold">y = 2sin(2x − π/3)</text><text x="684.0" y="336.0" font-size="13" fill="#475569" text-anchor="end" font-weight="normal">振幅 A、周期 T=2π/|ω|、相位 φ 共同决定图象</text></svg>